<svg width="50" height="50" viewBox="0 0 50 50" fill="none" xmlns="http://www.w3.org/2000/svg">
<path fill-rule="evenodd" clip-rule="evenodd" d="M38.835 21.2201L36.0625 20.0638L39.366 18.307C40.3738 17.7793 41.2673 17.0573 41.9945 16.1826C42.7219 15.308 43.2691 14.2978 43.6043 13.2108C43.9394 12.1236 44.0562 10.9809 43.9475 9.84853C43.839 8.71603 43.5074 7.61639 42.9718 6.61265C41.8958 4.58091 40.0571 3.05962 37.8597 2.38346C35.6623 1.70728 33.2863 1.93159 31.2543 3.00708L11.631 13.4066C10.173 14.1725 8.96402 15.3384 8.14544 16.7674C7.32685 18.1963 6.93272 19.8291 7.00939 21.4741C7.08768 23.0775 7.60849 24.6281 8.51381 25.9539C9.41912 27.2797 10.6739 28.329 12.1389 28.9855C12.2082 29.0086 14.9133 30.1399 14.9133 30.1399L11.631 31.8736C10.2534 32.6166 9.10255 33.7181 8.30024 35.0618C7.49779 36.4055 7.07362 37.9412 7.07288 39.5063C7.08502 41.8022 8.00262 44.0006 9.62618 45.624C11.2499 47.2472 13.4486 48.1644 15.7445 48.1759C17.1394 48.1759 18.5094 47.8412 19.7466 47.1986L39.3911 36.7971C40.8457 36.0299 42.0514 34.8633 42.8659 33.4345C43.6805 32.0059 44.0704 30.3742 43.9896 28.7316C43.907 27.126 43.3819 25.5749 42.4726 24.2492C41.5632 22.9234 40.303 21.8752 38.835 21.2201ZM20.876 18.9766V31.2251L32.4337 25.1027L20.876 18.9766Z" fill="#FF0000"/>
<path d="M20.875 31.225V18.9766L32.4328 25.1027L20.875 31.225Z" fill="white"/>
</svg>
